<svg width="185" height="32" viewBox="0 0 185 32" fill="none" xmlns="http://www.w3.org/2000/svg">
<path d="M0 6.9348C0 12.7032 0.0244753 14.0362 0.122376 14.8138C0.399763 16.853 1.06875 18.5906 2.26804 20.3521C3.01046 21.4391 4.64214 23.034 5.75169 23.7402C7.79129 25.0573 10.0267 25.8031 12.2621 25.9221L13.1432 25.9698L13.1106 18.4796C13.0861 11.0925 13.0861 10.9814 12.9066 10.2197C11.6013 4.64171 7.08151 0.698249 1.28903 0.087289C0.848476 0.0396817 0.383446 9.03849e-06 0.244753 9.03849e-06H0V6.9348Z" fill="#42C0FB"/>
<path d="M20.0285 1.20602C19.0087 1.3171 18.0297 1.81698 17.2954 2.59456C15.5169 4.49092 15.8432 7.52191 17.997 9.0136C18.7395 9.52935 19.4411 9.76739 20.3548 9.81499C21.6765 9.89434 22.8187 9.46587 23.7406 8.56927C24.6462 7.6806 25.0459 6.72846 25.0459 5.4748C25.0459 2.86434 22.7452 0.904504 20.0285 1.20602Z" fill="black"/>
<path d="M26.7596 11.4813C21.5953 12.0208 17.5895 15.5438 16.3495 20.6298C16.2189 21.1614 16.2026 21.8041 16.1781 26.6124L16.1455 32L17.0266 31.9524C19.7678 31.8016 22.4438 30.6115 24.4753 28.6358C26.1885 26.9616 27.241 25.0255 27.7468 22.6293C27.9181 21.82 27.9263 21.5502 27.9671 16.5991L27.9997 11.4257L27.5183 11.4416C27.2573 11.4416 26.9146 11.4654 26.7596 11.4813Z" fill="#42C0FB"/>
<path d="M49.4062 19.5352C49.4062 19.2305 49.3594 18.957 49.2656 18.7148C49.1797 18.4648 49.0156 18.2383 48.7734 18.0352C48.5312 17.8242 48.1914 17.6172 47.7539 17.4141C47.3164 17.2109 46.75 17 46.0547 16.7812C45.2812 16.5312 44.5469 16.25 43.8516 15.9375C43.1641 15.625 42.5547 15.2617 42.0234 14.8477C41.5 14.4258 41.0859 13.9375 40.7812 13.3828C40.4844 12.8281 40.3359 12.1836 40.3359 11.4492C40.3359 10.7383 40.4922 10.0938 40.8047 9.51562C41.1172 8.92969 41.5547 8.42969 42.1172 8.01562C42.6797 7.59375 43.3438 7.26953 44.1094 7.04297C44.8828 6.81641 45.7305 6.70312 46.6523 6.70312C47.9102 6.70312 49.0078 6.92969 49.9453 7.38281C50.8828 7.83594 51.6094 8.45703 52.125 9.24609C52.6484 10.0352 52.9102 10.9375 52.9102 11.9531H49.418C49.418 11.4531 49.3125 11.0156 49.1016 10.6406C48.8984 10.2578 48.5859 9.95703 48.1641 9.73828C47.75 9.51953 47.2266 9.41016 46.5938 9.41016C45.9844 9.41016 45.4766 9.50391 45.0703 9.69141C44.6641 9.87109 44.3594 10.1172 44.1562 10.4297C43.9531 10.7344 43.8516 11.0781 43.8516 11.4609C43.8516 11.75 43.9219 12.0117 44.0625 12.2461C44.2109 12.4805 44.4297 12.6992 44.7188 12.9023C45.0078 13.1055 45.3633 13.2969 45.7852 13.4766C46.207 13.6562 46.6953 13.832 47.25 14.0039C48.1797 14.2852 48.9961 14.6016 49.6992 14.9531C50.4102 15.3047 51.0039 15.6992 51.4805 16.1367C51.957 16.5742 52.3164 17.0703 52.5586 17.625C52.8008 18.1797 52.9219 18.8086 52.9219 19.5117C52.9219 20.2539 52.7773 20.918 52.4883 21.5039C52.1992 22.0898 51.7812 22.5859 51.2344 22.9922C50.6875 23.3984 50.0352 23.707 49.2773 23.918C48.5195 24.1289 47.6719 24.2344 46.7344 24.2344C45.8906 24.2344 45.0586 24.125 44.2383 23.9062C43.418 23.6797 42.6719 23.3398 42 22.8867C41.3359 22.4336 40.8047 21.8555 40.4062 21.1523C40.0078 20.4492 39.8086 19.6172 39.8086 18.6562H43.3359C43.3359 19.1875 43.418 19.6367 43.582 20.0039C43.7461 20.3711 43.9766 20.668 44.2734 20.8945C44.5781 21.1211 44.9375 21.2852 45.3516 21.3867C45.7734 21.4883 46.2344 21.5391 46.7344 21.5391C47.3438 21.5391 47.8438 21.4531 48.2344 21.2812C48.6328 21.1094 48.9258 20.8711 49.1133 20.5664C49.3086 20.2617 49.4062 19.918 49.4062 19.5352ZM55.2656 22.3711C55.2656 21.8711 55.4375 21.4531 55.7812 21.1172C56.1328 20.7812 56.5977 20.6133 57.1758 20.6133C57.7539 20.6133 58.2148 20.7812 58.5586 21.1172C58.9102 21.4531 59.0859 21.8711 59.0859 22.3711C59.0859 22.8711 58.9102 23.2891 58.5586 23.625C58.2148 23.9609 57.7539 24.1289 57.1758 24.1289C56.5977 24.1289 56.1328 23.9609 55.7812 23.625C55.4375 23.2891 55.2656 22.8711 55.2656 22.3711ZM69.2109 9.85547L64.5703 24H60.832L67.1719 6.9375H69.5508L69.2109 9.85547ZM73.0664 24L68.4141 9.85547L68.0391 6.9375H70.4414L76.8164 24H73.0664ZM72.8555 17.6484V20.4023H63.8438V17.6484H72.8555ZM84.1875 11.3203V13.7109H76.8047V11.3203H84.1875ZM78.6328 8.19141H82.0078V20.1797C82.0078 20.5469 82.0547 20.8281 82.1484 21.0234C82.25 21.2188 82.3984 21.3555 82.5938 21.4336C82.7891 21.5039 83.0352 21.5391 83.332 21.5391C83.543 21.5391 83.7305 21.5312 83.8945 21.5156C84.0664 21.4922 84.2109 21.4688 84.3281 21.4453L84.3398 23.9297C84.0508 24.0234 83.7383 24.0977 83.4023 24.1523C83.0664 24.207 82.6953 24.2344 82.2891 24.2344C81.5469 24.2344 80.8984 24.1133 80.3438 23.8711C79.7969 23.6211 79.375 23.2227 79.0781 22.6758C78.7812 22.1289 78.6328 21.4102 78.6328 20.5195V8.19141ZM92.3203 11.3203V13.7109H84.9375V11.3203H92.3203ZM86.7656 8.19141H90.1406V20.1797C90.1406 20.5469 90.1875 20.8281 90.2812 21.0234C90.3828 21.2188 90.5312 21.3555 90.7266 21.4336C90.9219 21.5039 91.168 21.5391 91.4648 21.5391C91.6758 21.5391 91.8633 21.5312 92.0273 21.5156C92.1992 21.4922 92.3438 21.4688 92.4609 21.4453L92.4727 23.9297C92.1836 24.0234 91.8711 24.0977 91.5352 24.1523C91.1992 24.207 90.8281 24.2344 90.4219 24.2344C89.6797 24.2344 89.0312 24.1133 88.4766 23.8711C87.9297 23.6211 87.5078 23.2227 87.2109 22.6758C86.9141 22.1289 86.7656 21.4102 86.7656 20.5195V8.19141ZM100.078 24.2344C99.0938 24.2344 98.2109 24.0781 97.4297 23.7656C96.6484 23.4453 95.9844 23.0039 95.4375 22.4414C94.8984 21.8789 94.4844 21.2266 94.1953 20.4844C93.9062 19.7344 93.7617 18.9375 93.7617 18.0938V17.625C93.7617 16.6641 93.8984 15.7852 94.1719 14.9883C94.4453 14.1914 94.8359 13.5 95.3438 12.9141C95.8594 12.3281 96.4844 11.8789 97.2188 11.5664C97.9531 11.2461 98.7812 11.0859 99.7031 11.0859C100.602 11.0859 101.398 11.2344 102.094 11.5312C102.789 11.8281 103.371 12.25 103.84 12.7969C104.316 13.3438 104.676 14 104.918 14.7656C105.16 15.5234 105.281 16.3672 105.281 17.2969V18.7031H95.2031V16.4531H101.965V16.1953C101.965 15.7266 101.879 15.3086 101.707 14.9414C101.543 14.5664 101.293 14.2695 100.957 14.0508C100.621 13.832 100.191 13.7227 99.668 13.7227C99.2227 13.7227 98.8398 13.8203 98.5195 14.0156C98.1992 14.2109 97.9375 14.4844 97.7344 14.8359C97.5391 15.1875 97.3906 15.6016 97.2891 16.0781C97.1953 16.5469 97.1484 17.0625 97.1484 17.625V18.0938C97.1484 18.6016 97.2188 19.0703 97.3594 19.5C97.5078 19.9297 97.7148 20.3008 97.9805 20.6133C98.2539 20.9258 98.582 21.168 98.9648 21.3398C99.3555 21.5117 99.7969 21.5977 100.289 21.5977C100.898 21.5977 101.465 21.4805 101.988 21.2461C102.52 21.0039 102.977 20.6406 103.359 20.1562L105 21.9375C104.734 22.3203 104.371 22.6875 103.91 23.0391C103.457 23.3906 102.91 23.6797 102.27 23.9062C101.629 24.125 100.898 24.2344 100.078 24.2344ZM110.508 14.0273V24H107.133V11.3203H110.297L110.508 14.0273ZM110.016 17.2148H109.102C109.102 16.2773 109.223 15.4336 109.465 14.6836C109.707 13.9258 110.047 13.2812 110.484 12.75C110.922 12.2109 111.441 11.8008 112.043 11.5195C112.652 11.2305 113.332 11.0859 114.082 11.0859C114.676 11.0859 115.219 11.1719 115.711 11.3438C116.203 11.5156 116.625 11.7891 116.977 12.1641C117.336 12.5391 117.609 13.0352 117.797 13.6523C117.992 14.2695 118.09 15.0234 118.09 15.9141V24H114.691V15.9023C114.691 15.3398 114.613 14.9023 114.457 14.5898C114.301 14.2773 114.07 14.0586 113.766 13.9336C113.469 13.8008 113.102 13.7344 112.664 13.7344C112.211 13.7344 111.816 13.8242 111.48 14.0039C111.152 14.1836 110.879 14.4336 110.66 14.7539C110.449 15.0664 110.289 15.4336 110.18 15.8555C110.07 16.2773 110.016 16.7305 110.016 17.2148ZM128.145 21.2344V6H131.543V24H128.484L128.145 21.2344ZM120.129 17.8125V17.5664C120.129 16.5977 120.238 15.7188 120.457 14.9297C120.676 14.1328 120.996 13.4492 121.418 12.8789C121.84 12.3086 122.359 11.8672 122.977 11.5547C123.594 11.2422 124.297 11.0859 125.086 11.0859C125.828 11.0859 126.477 11.2422 127.031 11.5547C127.594 11.8672 128.07 12.3125 128.461 12.8906C128.859 13.4609 129.18 14.1367 129.422 14.918C129.664 15.6914 129.84 16.5391 129.949 17.4609V18C129.84 18.8828 129.664 19.7031 129.422 20.4609C129.18 21.2188 128.859 21.8828 128.461 22.4531C128.07 23.0156 127.594 23.4531 127.031 23.7656C126.469 24.0781 125.812 24.2344 125.062 24.2344C124.273 24.2344 123.57 24.0742 122.953 23.7539C122.344 23.4336 121.828 22.9844 121.406 22.4062C120.992 21.8281 120.676 21.1484 120.457 20.3672C120.238 19.5859 120.129 18.7344 120.129 17.8125ZM123.504 17.5664V17.8125C123.504 18.3359 123.543 18.8242 123.621 19.2773C123.707 19.7305 123.844 20.1328 124.031 20.4844C124.227 20.8281 124.477 21.0977 124.781 21.293C125.094 21.4805 125.473 21.5742 125.918 21.5742C126.496 21.5742 126.973 21.4453 127.348 21.1875C127.723 20.9219 128.008 20.5586 128.203 20.0977C128.406 19.6367 128.523 19.1055 128.555 18.5039V16.9688C128.531 16.4766 128.461 16.0352 128.344 15.6445C128.234 15.2461 128.07 14.9062 127.852 14.625C127.641 14.3438 127.375 14.125 127.055 13.9688C126.742 13.8125 126.371 13.7344 125.941 13.7344C125.504 13.7344 125.129 13.8359 124.816 14.0391C124.504 14.2344 124.25 14.5039 124.055 14.8477C123.867 15.1914 123.727 15.5977 123.633 16.0664C123.547 16.5273 123.504 17.0273 123.504 17.5664ZM141.023 21.1406V15.4922C141.023 15.0859 140.957 14.7383 140.824 14.4492C140.691 14.1523 140.484 13.9219 140.203 13.7578C139.93 13.5938 139.574 13.5117 139.137 13.5117C138.762 13.5117 138.438 13.5781 138.164 13.7109C137.891 13.8359 137.68 14.0195 137.531 14.2617C137.383 14.4961 137.309 14.7734 137.309 15.0938H133.934C133.934 14.5547 134.059 14.043 134.309 13.5586C134.559 13.0742 134.922 12.6484 135.398 12.2812C135.875 11.9062 136.441 11.6133 137.098 11.4023C137.762 11.1914 138.504 11.0859 139.324 11.0859C140.309 11.0859 141.184 11.25 141.949 11.5781C142.715 11.9062 143.316 12.3984 143.754 13.0547C144.199 13.7109 144.422 14.5312 144.422 15.5156V20.9414C144.422 21.6367 144.465 22.207 144.551 22.6523C144.637 23.0898 144.762 23.4727 144.926 23.8008V24H141.516C141.352 23.6562 141.227 23.2266 141.141 22.7109C141.062 22.1875 141.023 21.6641 141.023 21.1406ZM141.469 16.2773L141.492 18.1875H139.605C139.16 18.1875 138.773 18.2383 138.445 18.3398C138.117 18.4414 137.848 18.5859 137.637 18.7734C137.426 18.9531 137.27 19.1641 137.168 19.4062C137.074 19.6484 137.027 19.9141 137.027 20.2031C137.027 20.4922 137.094 20.7539 137.227 20.9883C137.359 21.2148 137.551 21.3945 137.801 21.5273C138.051 21.6523 138.344 21.7148 138.68 21.7148C139.188 21.7148 139.629 21.6133 140.004 21.4102C140.379 21.207 140.668 20.957 140.871 20.6602C141.082 20.3633 141.191 20.082 141.199 19.8164L142.09 21.2461C141.965 21.5664 141.793 21.8984 141.574 22.2422C141.363 22.5859 141.094 22.9102 140.766 23.2148C140.438 23.5117 140.043 23.7578 139.582 23.9531C139.121 24.1406 138.574 24.2344 137.941 24.2344C137.137 24.2344 136.406 24.0742 135.75 23.7539C135.102 23.4258 134.586 22.9766 134.203 22.4062C133.828 21.8281 133.641 21.1719 133.641 20.4375C133.641 19.7734 133.766 19.1836 134.016 18.668C134.266 18.1523 134.633 17.7188 135.117 17.3672C135.609 17.0078 136.223 16.7383 136.957 16.5586C137.691 16.3711 138.543 16.2773 139.512 16.2773H141.469ZM150.328 14.0273V24H146.953V11.3203H150.117L150.328 14.0273ZM149.836 17.2148H148.922C148.922 16.2773 149.043 15.4336 149.285 14.6836C149.527 13.9258 149.867 13.2812 150.305 12.75C150.742 12.2109 151.262 11.8008 151.863 11.5195C152.473 11.2305 153.152 11.0859 153.902 11.0859C154.496 11.0859 155.039 11.1719 155.531 11.3438C156.023 11.5156 156.445 11.7891 156.797 12.1641C157.156 12.5391 157.43 13.0352 157.617 13.6523C157.812 14.2695 157.91 15.0234 157.91 15.9141V24H154.512V15.9023C154.512 15.3398 154.434 14.9023 154.277 14.5898C154.121 14.2773 153.891 14.0586 153.586 13.9336C153.289 13.8008 152.922 13.7344 152.484 13.7344C152.031 13.7344 151.637 13.8242 151.301 14.0039C150.973 14.1836 150.699 14.4336 150.48 14.7539C150.27 15.0664 150.109 15.4336 150 15.8555C149.891 16.2773 149.836 16.7305 149.836 17.2148ZM165.715 21.5977C166.129 21.5977 166.496 21.5195 166.816 21.3633C167.137 21.1992 167.387 20.9727 167.566 20.6836C167.754 20.3867 167.852 20.0391 167.859 19.6406H171.035C171.027 20.5312 170.789 21.3242 170.32 22.0195C169.852 22.707 169.223 23.25 168.434 23.6484C167.645 24.0391 166.762 24.2344 165.785 24.2344C164.801 24.2344 163.941 24.0703 163.207 23.7422C162.48 23.4141 161.875 22.9609 161.391 22.3828C160.906 21.7969 160.543 21.1172 160.301 20.3438C160.059 19.5625 159.938 18.7266 159.938 17.8359V17.4961C159.938 16.5977 160.059 15.7617 160.301 14.9883C160.543 14.207 160.906 13.5273 161.391 12.9492C161.875 12.3633 162.48 11.9062 163.207 11.5781C163.934 11.25 164.785 11.0859 165.762 11.0859C166.801 11.0859 167.711 11.2852 168.492 11.6836C169.281 12.082 169.898 12.6523 170.344 13.3945C170.797 14.1289 171.027 15 171.035 16.0078H167.859C167.852 15.5859 167.762 15.2031 167.59 14.8594C167.426 14.5156 167.184 14.2422 166.863 14.0391C166.551 13.8281 166.164 13.7227 165.703 13.7227C165.211 13.7227 164.809 13.8281 164.496 14.0391C164.184 14.2422 163.941 14.5234 163.77 14.8828C163.598 15.2344 163.477 15.6367 163.406 16.0898C163.344 16.5352 163.312 17.0039 163.312 17.4961V17.8359C163.312 18.3281 163.344 18.8008 163.406 19.2539C163.469 19.707 163.586 20.1094 163.758 20.4609C163.938 20.8125 164.184 21.0898 164.496 21.293C164.809 21.4961 165.215 21.5977 165.715 21.5977ZM178.828 24.2344C177.844 24.2344 176.961 24.0781 176.18 23.7656C175.398 23.4453 174.734 23.0039 174.188 22.4414C173.648 21.8789 173.234 21.2266 172.945 20.4844C172.656 19.7344 172.512 18.9375 172.512 18.0938V17.625C172.512 16.6641 172.648 15.7852 172.922 14.9883C173.195 14.1914 173.586 13.5 174.094 12.9141C174.609 12.3281 175.234 11.8789 175.969 11.5664C176.703 11.2461 177.531 11.0859 178.453 11.0859C179.352 11.0859 180.148 11.2344 180.844 11.5312C181.539 11.8281 182.121 12.25 182.59 12.7969C183.066 13.3438 183.426 14 183.668 14.7656C183.91 15.5234 184.031 16.3672 184.031 17.2969V18.7031H173.953V16.4531H180.715V16.1953C180.715 15.7266 180.629 15.3086 180.457 14.9414C180.293 14.5664 180.043 14.2695 179.707 14.0508C179.371 13.832 178.941 13.7227 178.418 13.7227C177.973 13.7227 177.59 13.8203 177.27 14.0156C176.949 14.2109 176.688 14.4844 176.484 14.8359C176.289 15.1875 176.141 15.6016 176.039 16.0781C175.945 16.5469 175.898 17.0625 175.898 17.625V18.0938C175.898 18.6016 175.969 19.0703 176.109 19.5C176.258 19.9297 176.465 20.3008 176.73 20.6133C177.004 20.9258 177.332 21.168 177.715 21.3398C178.105 21.5117 178.547 21.5977 179.039 21.5977C179.648 21.5977 180.215 21.4805 180.738 21.2461C181.27 21.0039 181.727 20.6406 182.109 20.1562L183.75 21.9375C183.484 22.3203 183.121 22.6875 182.66 23.0391C182.207 23.3906 181.66 23.6797 181.02 23.9062C180.379 24.125 179.648 24.2344 178.828 24.2344Z" fill="black"/>
</svg>
